# xmcd CD database file
#
# Track frame offsets:
#	150
#	15136
#	57500
#	116136
#	139329
#	161502
#	181411
#	221234
#	247509
#	279263
#	292152
#
# Disc length: 4588 seconds
#
# Revision: 3
# Processed by: cddbd v1.5.2PL0 Copyright (c) Steve Scherf et al.
# Submitted via: CDex 1.79
#
DISCID=9f11ea0b
DTITLE=Miles Davis - The Genius Of Jazz [CD1)
DYEAR=2012
DGENRE=Jazz
TTITLE0=Summertime
TTITLE1=So What
TTITLE2=Sid's Ahead
TTITLE3=Pinocchio
TTITLE4=I Thought About You
TTITLE5=It Ain't Necessarily So
TTITLE6=Mood
TTITLE7=Fran Dance
TTITLE8=All of You
TTITLE9=Florence Sur Les Champs Elysees
TTITLE10=All Blues
EXTD=YEAR: 2012
EXTT0=
EXTT1=
EXTT2=
EXTT3=
EXTT4=
EXTT5=
EXTT6=
EXTT7=
EXTT8=
EXTT9=
EXTT10=
PLAYORDER=
